<?xml version="1.0" encoding="UTF-8"?>
<svg width="1024" height="1024" viewBox="0 0 1024 1024" xmlns="http://www.w3.org/2000/svg">
  <!-- Background gradient -->
  <defs>
    <linearGradient id="backgroundGradient" x1="0%" y1="0%" x2="100%" y2="100%">
      <stop offset="0%" style="stop-color:#667eea;stop-opacity:1" />
      <stop offset="100%" style="stop-color:#764ba2;stop-opacity:1" />
    </linearGradient>
    <linearGradient id="monkeyGradient" x1="0%" y1="0%" x2="100%" y2="100%">
      <stop offset="0%" style="stop-color:#ff9a9e;stop-opacity:1" />
      <stop offset="100%" style="stop-color:#fecfef;stop-opacity:1" />
    </linearGradient>
    <linearGradient id="sensorGradient" x1="0%" y1="0%" x2="100%" y2="100%">
      <stop offset="0%" style="stop-color:#a8edea;stop-opacity:1" />
      <stop offset="100%" style="stop-color:#fed6e3;stop-opacity:1" />
    </linearGradient>
    <filter id="shadow" x="-50%" y="-50%" width="200%" height="200%">
      <feDropShadow dx="0" dy="4" flood-color="#000000" flood-opacity="0.25" stdDeviation="8"/>
    </filter>
  </defs>
  
  <!-- Background -->
  <rect width="1024" height="1024" rx="180" fill="url(#backgroundGradient)"/>
  
  <!-- Sensor waves background -->
  <g opacity="0.2">
    <circle cx="512" cy="512" r="300" fill="none" stroke="#ffffff" stroke-width="2"/>
    <circle cx="512" cy="512" r="250" fill="none" stroke="#ffffff" stroke-width="2"/>
    <circle cx="512" cy="512" r="200" fill="none" stroke="#ffffff" stroke-width="2"/>
  </g>
  
  <!-- Main monkey head -->
  <g filter="url(#shadow)">
    <!-- Head -->
    <circle cx="512" cy="420" r="180" fill="url(#monkeyGradient)"/>
    
    <!-- Ears -->
    <circle cx="380" cy="350" r="60" fill="url(#monkeyGradient)"/>
    <circle cx="644" cy="350" r="60" fill="url(#monkeyGradient)"/>
    <circle cx="380" cy="350" r="35" fill="#8B4513"/>
    <circle cx="644" cy="350" r="35" fill="#8B4513"/>
    
    <!-- Eyes -->
    <circle cx="460" cy="380" r="25" fill="#ffffff"/>
    <circle cx="564" cy="380" r="25" fill="#ffffff"/>
    <circle cx="460" cy="380" r="15" fill="#000000"/>
    <circle cx="564" cy="380" r="15" fill="#000000"/>
    
    <!-- Eye highlights -->
    <circle cx="465" cy="375" r="5" fill="#ffffff"/>
    <circle cx="569" cy="375" r="5" fill="#ffffff"/>
    
    <!-- Nose -->
    <ellipse cx="512" cy="420" rx="20" ry="15" fill="#8B4513"/>
    <ellipse cx="505" cy="420" rx="3" ry="8" fill="#000000"/>
    <ellipse cx="519" cy="420" rx="3" ry="8" fill="#000000"/>
    
    <!-- Mouth -->
    <path d="M 480 450 Q 512 470 544 450" stroke="#8B4513" stroke-width="4" fill="none" stroke-linecap="round"/>
  </g>
  
  <!-- Sensor device -->
  <g filter="url(#shadow)">
    <!-- Device body -->
    <rect x="420" y="580" width="184" height="120" rx="20" fill="url(#sensorGradient)"/>
    <rect x="435" y="595" width="154" height="90" rx="10" fill="#ffffff" opacity="0.8"/>
    
    <!-- Screen -->
    <rect x="450" y="610" width="124" height="60" rx="8" fill="#000000"/>
    
    <!-- Sensor readings display -->
    <text x="460" y="635" font-family="Arial, sans-serif" font-size="12" fill="#00ff00">TEMP: 24.5°C</text>
    <text x="460" y="650" font-family="Arial, sans-serif" font-size="12" fill="#00ff00">ACCEL: 9.8</text>
    <text x="460" y="665" font-family="Arial, sans-serif" font-size="12" fill="#00ff00">GYRO: 0.02</text>
    
    <!-- Buttons -->
    <circle cx="450" cy="720" r="8" fill="#ff4757"/>
    <circle cx="474" cy="720" r="8" fill="#2ed573"/>
    <circle cx="498" cy="720" r="8" fill="#1e90ff"/>
    
    <!-- Connection indicator -->
    <circle cx="570" cy="720" r="6" fill="#2ed573"/>
  </g>
  
  <!-- Sensor waves emanating from device -->
  <g opacity="0.6">
    <circle cx="512" cy="640" r="80" fill="none" stroke="#a8edea" stroke-width="3" stroke-dasharray="5,5">
      <animateTransform attributeName="transform" type="scale" values="1;1.2;1" dur="2s" repeatCount="indefinite"/>
    </circle>
    <circle cx="512" cy="640" r="60" fill="none" stroke="#fed6e3" stroke-width="2" stroke-dasharray="3,3">
      <animateTransform attributeName="transform" type="scale" values="1;1.3;1" dur="1.5s" repeatCount="indefinite"/>
    </circle>
  </g>
  
  <!-- Data points floating around -->
  <g opacity="0.7">
    <circle cx="300" cy="300" r="4" fill="#ffffff"/>
    <circle cx="720" cy="280" r="4" fill="#ffffff"/>
    <circle cx="250" cy="600" r="4" fill="#ffffff"/>
    <circle cx="780" cy="650" r="4" fill="#ffffff"/>
    <circle cx="200" cy="450" r="4" fill="#ffffff"/>
    <circle cx="824" cy="500" r="4" fill="#ffffff"/>
  </g>
  
  <!-- Title text at bottom -->
  <text x="512" y="880" font-family="Arial, sans-serif" font-size="48" font-weight="bold" fill="#ffffff" text-anchor="middle">SENSOR</text>
  <text x="512" y="930" font-family="Arial, sans-serif" font-size="48" font-weight="bold" fill="#ffffff" text-anchor="middle">MONKEY</text>
</svg>